HIERARCHY
ROOT Hips
{
	OFFSET 0.00000 0.00000 0.00000
	CHANNELS 6 Xposition Yposition Zposition Zrotation Yrotation Xrotation 
	JOINT LHipJoint
	{
		OFFSET 0 0 0
		CHANNELS 3 Zrotation Yrotation Xrotation
		JOINT LeftHip
		{
			OFFSET 1.53794 -1.55850 0.93568
			CHANNELS 3 Zrotation Yrotation Xrotation
			JOINT LeftKnee
			{
				OFFSET 2.28545 -6.27922 0.00000
				CHANNELS 3 Zrotation Yrotation Xrotation
				JOINT LeftAnkle
				{
					OFFSET 2.37329 -6.52057 0.00000
					CHANNELS 3 Zrotation Yrotation Xrotation
					JOINT LeftToe
					{
						OFFSET 0.14846 -0.40788 2.09160
						CHANNELS 3 Zrotation Yrotation Xrotation
						End Site
						{
							OFFSET 0.00000 -0.00000 1.07536
						}
					}
				}
			}
		}
	}
	JOINT RHipJoint
	{
		OFFSET 0 0 0
		CHANNELS 3 Zrotation Yrotation Xrotation
		JOINT RightHip
		{
			OFFSET -1.78290 -1.55850 0.93568
			CHANNELS 3 Zrotation Yrotation Xrotation
			JOINT RightKnee
			{
				OFFSET -2.24144 -6.15831 0.00000
				CHANNELS 3 Zrotation Yrotation Xrotation
				JOINT RightAnkle
				{
					OFFSET -2.35091 -6.45907 0.00000
					CHANNELS 3 Zrotation Yrotation Xrotation
					JOINT RightToe
					{
						OFFSET -0.14428 -0.39641 2.07944
						CHANNELS 3 Zrotation Yrotation Xrotation
						End Site
						{
							OFFSET -0.00000 -0.00000 1.06864
						}
					}
				}
			}
		}
	}
	JOINT lowerback
	{
		OFFSET 0 0 0
		CHANNELS 3 Zrotation Yrotation Xrotation
		JOINT Chest
		{
			OFFSET -0.08841 2.11430 -0.15818
			CHANNELS 3 Zrotation Yrotation Xrotation
			JOINT Chest2
			{
				OFFSET -0.00033 2.12605 -0.08097
				CHANNELS 3 Zrotation Yrotation Xrotation
				JOINT lowerneck
				{
					OFFSET 0 0 0
					CHANNELS 3 Zrotation Yrotation Xrotation
					JOINT Neck
					{
						OFFSET 0.04431 1.59447 0.43193
						CHANNELS 3 Zrotation Yrotation Xrotation
						JOINT Head
						{
							OFFSET 0.00455 1.62017 -0.58852
							CHANNELS 3 Zrotation Yrotation Xrotation
							End Site
							{
								OFFSET -0.00920 1.72955 -0.25850
							}
						}
					}
				}
				JOINT LeftCollar
				{
					OFFSET 0 0 0
					CHANNELS 3 Zrotation Yrotation Xrotation
					JOINT LeftShoulder
					{
						OFFSET 2.86490 1.49927 -0.33774
CHANNELS 3 Zrotation Xrotation Yrotation
						JOINT LeftElbow
						{
OFFSET 0 -4.874080 0.000000
CHANNELS 3 Zrotation Xrotation Yrotation
							JOINT LeftWrist
							{
OFFSET 0 -2.767290 0.000000
CHANNELS 3 Zrotation Xrotation Yrotation
								JOINT lhand
								{
									OFFSET 0 0 0
CHANNELS 3 Zrotation Xrotation Yrotation
									JOINT LFingers
									{
OFFSET 0 -0.989220 0.000000
CHANNELS 3 Zrotation Xrotation Yrotation
										End Site
										{
OFFSET 0 -0.797530 0.000000
										}
									}
								}
								JOINT LThumb
								{
OFFSET 0 0.000000 0.000000
CHANNELS 3 Zrotation Xrotation Yrotation
									End Site
									{
OFFSET 0 -0.809720 0.809720
									}
								}
							}
						}
					}
				}
				JOINT RightCollar
				{
					OFFSET 0 0 0
					CHANNELS 3 Zrotation Yrotation Xrotation
					JOINT RightShoulder
					{
						OFFSET -2.94414 1.45463 -0.25291
CHANNELS 3 Zrotation Xrotation Yrotation
						JOINT RightElbow
						{
OFFSET 0 -4.714040 0.000000
CHANNELS 3 Zrotation Xrotation Yrotation
							JOINT RightWrist
							{
OFFSET 0 -2.834680 0.000000
CHANNELS 3 Zrotation Xrotation Yrotation
								JOINT rhand
								{
									OFFSET 0 0 0
CHANNELS 3 Zrotation Xrotation Yrotation
									JOINT RFingers
									{
OFFSET 0 -0.868200 0.000000
CHANNELS 3 Zrotation Xrotation Yrotation
										End Site
										{
OFFSET 0 -0.699960 0.000000
										}
									}
								}
								JOINT RThumb
								{
OFFSET 0 0.000000 0.000000
CHANNELS 3 Zrotation Xrotation Yrotation
									End Site
									{
OFFSET 0 -0.710650 0.710650
									}
								}
							}
						}
					}
				}
			}
		}
	}
}
MOTION
Frames: 8
Frame Time: 0.008333333333333333
2.756110 8.152104 2.800107 -181.487332 3.848951 -119.070462 0.000000 0.000000 0.000000 4.460804 6.031172 -97.230076 35.979355 12.187773 143.600367 0.394027 15.308073 -25.355592 0.498102 -4.524427 -12.556966 0.000000 0.000000 0.000000 20.339019 18.060780 -33.797498 -27.184790 -18.714395 111.449441 1.127535 -20.048847 1.070364 -2.747757 10.275012 -29.872028 0.268762 -1.096861 31.183127 -11.602091 -1.948060 0.889185 -12.605136 -0.937907 -16.304094 9.646594 1.833625 -26.039975 6.085770 -3.082689 17.681317 0.116123 -0.157597 9.968667 0.000000 0.000000 0.000000 41.844062 -35.983374 -40.701992 29.007416 -40.026468 10.765733 48.836785 55.524475 -16.890315 0.000000 0.000000 0.000000 -7.125000 0.000000 0.000000 22.466178 53.312035 -4.798948 0.000000 0.000000 0.000000 6.589243 -36.978868 24.035506 -35.788814 -45.366169 -15.372374 -53.030669 46.890492 16.211550 0.000000 0.000000 0.000000 7.125000 0.000000 0.000000 -27.367605 53.608307 6.153488
2.744758 8.119102 2.695679 -181.125973 4.344957 -118.947474 0.000000 0.000000 0.000000 4.526643 5.372875 -96.792382 35.928465 12.254940 143.360009 0.374345 15.101893 -24.946276 0.518334 -4.613988 -12.810806 0.000000 0.000000 0.000000 20.210211 17.986250 -33.260217 -27.113627 -18.740689 111.227771 1.190083 -20.302661 0.430266 -2.722067 10.230939 -29.727888 0.188952 -0.935828 30.707880 -11.701989 -1.772396 0.825606 -12.745584 -0.862802 -16.125538 9.807512 1.935203 -26.199807 5.922370 -2.985500 17.669620 0.049585 -0.118979 9.987412 0.000000 0.000000 0.000000 41.983715 -34.904466 -40.785210 29.590644 -40.538001 11.143306 47.795360 53.259273 -15.992938 0.000000 0.000000 0.000000 -7.125000 0.000000 0.000000 20.932099 51.862186 -3.683124 0.000000 0.000000 0.000000 7.351882 -36.580645 24.263052 -35.225502 -44.971527 -14.972838 -53.514573 47.569460 16.274313 0.000000 0.000000 0.000000 7.125000 0.000000 0.000000 -28.027222 53.841674 6.487089
2.730602 8.085685 2.591781 -180.737274 4.808664 -118.810573 0.000000 0.000000 0.000000 4.551467 4.889988 -96.268358 35.899774 12.292619 143.224891 0.361777 14.890061 -24.587630 0.543721 -4.723979 -13.123056 0.000000 0.000000 0.000000 20.108489 17.900016 -32.734301 -27.048199 -18.764674 111.024241 1.248780 -20.526675 -0.232853 -2.734771 10.252737 -29.799054 0.156832 -0.807868 30.267120 -11.788326 -1.625086 0.757486 -12.885461 -0.804787 -15.973984 9.965040 2.057450 -26.357349 5.753226 -2.857162 17.644976 -0.013571 -0.068111 10.001605 0.000000 0.000000 0.000000 42.217184 -33.712416 -40.702370 30.453071 -41.274966 11.708711 46.870823 51.337152 -15.232636 0.000000 0.000000 0.000000 -7.125000 0.000000 0.000000 19.656442 50.637871 -2.833054 0.000000 0.000000 0.000000 8.115042 -36.188926 24.557986 -34.692904 -44.590732 -14.597637 -53.994995 48.255155 16.321509 0.000000 0.000000 0.000000 7.125000 0.000000 0.000000 -28.683538 54.055438 6.815146
2.713317 8.051628 2.488778 -180.309284 5.227151 -118.663487 0.000000 0.000000 0.000000 4.547257 4.621526 -95.668802 35.898081 12.294800 143.217027 0.349708 14.708617 -24.266810 0.570753 -4.837939 -13.447069 0.000000 0.000000 0.000000 20.056750 17.814491 -32.207719 -26.991327 -18.785295 110.847590 1.305222 -20.714988 -0.989839 -2.802149 10.367255 -30.174679 0.177705 -0.718319 29.866910 -11.851470 -1.512889 0.683267 -13.014508 -0.767608 -15.855331 10.100711 2.201110 -26.493844 5.597480 -2.691664 17.597962 -0.062861 -0.002437 10.005592 0.000000 0.000000 0.000000 42.522048 -32.417493 -40.404689 31.609311 -42.227663 12.479499 46.236037 49.985417 -14.698119 0.000000 0.000000 0.000000 -7.125000 0.000000 0.000000 18.812571 49.789807 -2.296218 0.000000 0.000000 0.000000 8.883525 -35.802594 24.948927 -34.178807 -44.215917 -14.237925 -54.474607 49.001499 16.363712 0.000000 0.000000 0.000000 7.125000 0.000000 0.000000 -29.345759 54.264725 7.150660
2.692773 8.016566 2.386869 -179.832508 5.592358 -118.508691 0.000000 0.000000 0.000000 4.526401 4.589644 -95.001641 35.923092 12.262015 143.334686 0.331124 14.602495 -23.975708 0.594186 -4.934767 -13.722584 0.000000 0.000000 0.000000 20.072876 17.743076 -31.668641 -26.943222 -18.802547 110.698228 1.361320 -20.890354 -1.843512 -2.894529 10.521912 -30.684247 0.261199 -0.667266 29.504921 -11.890779 -1.431773 0.611988 -13.139114 -0.749508 -15.757547 10.216692 2.363551 -26.631134 5.453721 -2.496049 17.527621 -0.100011 0.075286 10.002578 0.000000 0.000000 0.000000 42.883996 -31.073081 -39.854385 33.068008 -43.373957 13.471674 46.014451 49.293177 -14.389186 0.000000 0.000000 0.000000 -7.125000 0.000000 0.000000 18.494116 49.335738 -2.040329 0.000000 0.000000 0.000000 9.657470 -35.439296 25.435200 -33.677214 -43.843329 -13.889260 -54.937576 49.797228 16.407969 0.000000 0.000000 0.000000 7.125000 0.000000 0.000000 -29.996515 54.473967 7.491751
2.669015 7.980424 2.286161 -179.310671 5.905047 -118.349042 0.000000 0.000000 0.000000 4.477576 4.776163 -94.294075 35.968952 12.201551 143.551086 0.300805 14.609277 -23.711991 0.608410 -4.992658 -13.887629 0.000000 0.000000 0.000000 20.153743 17.686809 -31.113188 -26.905187 -18.816132 110.580178 1.418417 -21.072603 -2.801372 -2.987051 10.673729 -31.187594 0.394165 -0.651438 29.191254 -11.903120 -1.384289 0.535719 -13.248336 -0.751671 -15.695059 10.320077 2.541962 -26.751902 5.320274 -2.274912 17.441832 -0.127583 0.163311 9.992466 0.000000 0.000000 0.000000 43.274729 -29.709350 -39.039794 34.830153 -44.679561 14.697480 46.224416 49.189532 -14.220531 0.000000 0.000000 0.000000 -7.125000 0.000000 0.000000 18.677291 49.161795 -1.979302 0.000000 0.000000 0.000000 10.422705 -35.077775 26.019055 -33.190928 -43.475501 -13.553495 -55.380952 50.589133 16.447174 0.000000 0.000000 0.000000 7.125000 0.000000 0.000000 -30.627016 54.672249 7.827247
2.641486 7.943369 2.187936 -178.768639 6.174427 -118.190618 0.000000 0.000000 0.000000 4.354402 5.120780 -93.595290 36.027048 12.124241 143.827020 0.255150 14.780300 -23.507027 0.610094 -4.999415 -13.906983 0.000000 0.000000 0.000000 20.263226 17.627342 -30.551177 -26.880951 -18.824702 110.505163 1.475065 -21.256414 -3.897498 -3.075489 10.815957 -31.662085 0.555782 -0.665960 28.939629 -11.890427 -1.371862 0.451064 -13.332805 -0.773442 -15.678652 10.414829 2.726467 -26.860654 5.194995 -2.044557 17.358042 -0.149435 0.255491 9.981983 0.000000 0.000000 0.000000 43.679924 -28.387335 -37.973581 36.880178 -46.095801 16.157974 46.804226 49.510723 -14.067476 0.000000 0.000000 0.000000 -7.125000 0.000000 0.000000 19.259857 49.090281 -2.010325 0.000000 0.000000 0.000000 11.147891 -34.701167 26.671728 -32.725276 -43.117132 -13.234141 -55.804648 51.327459 16.467156 0.000000 0.000000 0.000000 7.125000 0.000000 0.000000 -31.226106 54.839724 8.136906
2.609938 7.906506 2.092965 -178.239120 6.394249 -118.040805 0.000000 0.000000 0.000000 4.128427 5.531901 -92.956464 36.086669 12.044112 144.111739 0.205472 15.115942 -23.472256 0.613073 -5.011419 -13.941269 0.000000 0.000000 0.000000 20.373063 17.534015 -29.990559 -26.869827 -18.828631 110.470608 1.527313 -21.431137 -5.137069 -3.151822 10.936576 -32.066655 0.730848 -0.706968 28.764215 -11.841949 -1.393328 0.359782 -13.371212 -0.812670 -15.711662 10.494989 2.905345 -26.970136 5.064911 -1.816586 17.293826 -0.170975 0.346339 9.979028 0.000000 0.000000 0.000000 44.072593 -27.186387 -36.680341 39.182514 -47.563373 17.838085 47.628937 50.030522 -13.806502 0.000000 0.000000 0.000000 -7.125000 0.000000 0.000000 20.072933 48.930562 -2.019143 0.000000 0.000000 0.000000 11.769504 -34.306332 27.366734 -32.292621 -42.778658 -12.939346 -56.202084 51.929678 16.457544 0.000000 0.000000 0.000000 7.125000 0.000000 0.000000 -31.774582 54.959535 8.399326
